<?xml version="1.0" encoding="UTF-8"?>
<svg enable-background="new 0 0 45 45" version="1.1" viewBox="0 0 45 45" xml:space="preserve" xmlns="http://www.w3.org/2000/svg" xmlns:cc="http://creativecommons.org/ns#" xmlns:dc="http://purl.org/dc/elements/1.1/" xmlns:rdf="http://www.w3.org/1999/02/22-rdf-syntax-ns#"><metadata><rdf:RDF><cc:Work rdf:about=""><dc:format>image/svg+xml</dc:format><dc:type rdf:resource="http://purl.org/dc/dcmitype/StillImage"/><dc:title/></cc:Work></rdf:RDF></metadata><g><path d="m44.306 8.75c-0.86625-1.4888-2.46-2.5-4.3062-2.5h-17.5v2.5z" fill="#b22334"/><path d="m0 33.75h43.232v-2.5h-43.232z" fill="#b22334"/><path d="m22.5 23.75h20.732v-2.5h-20.732z" fill="#b22334"/><path d="m22.5 18.75h20.732v-2.5h-20.732z" fill="#b22334"/><path d="m0 28.75h43.232v-2.5h-43.232z" fill="#b22334"/><path d="m5 38.485h33.232c1.8462 0 3.44-0.74608 4.3062-2.2348h-41.845c0.86625 1.4888 2.46 2.2348 4.3062 2.2348" fill="#b22334"/><path d="m22.5 13.75h20.732v-2.5h-20.732z" fill="#b22334"/><path d="m0.085625 34.598c0.02125 0.11625 0.045 0.2325 0.07375 0.34625 0.0325 0.12625 0.07375 0.24875 0.115 0.37 0.11125 0.32375 0.24625 0.63625 0.41625 0.92875 0.00125 0.0025 0.00125 5e-3 0.0025 0.0063h41.846c0.0012-0.0012 0.0012-0.0037 0.0025-5e-3 0.16875-0.29125 0.30375-0.60375 0.415-0.92625 0.0425-0.12375 0.08375-0.2475 0.11625-0.375 0.03-0.11375 0.0525-0.22875 0.07375-0.34375 0.05-0.27625 0.08625-0.5575 0.08625-0.85h-43.232c0 0.29125 0.035 0.5725 0.085 0.84875" fill="#eee"/><path d="m0 31.25h43.232v-2.5h-43.232z" fill="#eee"/><path d="m0 23.75v2.5h43.232v-2.5h-20.732z" fill="#eee"/><path d="m22.5 21.25h20.732v-2.5h-20.732z" fill="#eee"/><path d="m22.5 16.25h20.732v-2.5h-20.732z" fill="#eee"/><path d="M 0,11.25 C 0,10.95875 0.0375,10.67875 0.085,10.40125 0.035,10.6775 0,10.95875 0,11.25" fill="#eee"/><path d="m0.69338 8.75c-0.00125 0.0025-0.0025 0.00375-0.0025 0.00625 0.00125-0.0025 0.00125-0.00375 0.0025-0.00625z" fill="#eee"/><path d="m0.15962 10.056c0.03125-0.1275 0.075-0.24875 0.115-0.37125-0.04125 0.1225-0.0825 0.245-0.115 0.37125" fill="#eee"/><path d="m22.5 11.25h20.732c0-0.29125-0.035-0.57375-0.08625-0.85-0.02-0.115-0.04375-0.23-0.0725-0.3425-0.03375-0.12875-0.075-0.25375-0.1175-0.3775-0.11125-0.3225-0.245-0.63375-0.415-0.925 0-0.00125-0.0013-0.00375-0.0025-5e-3h-20.038z" fill="#eee"/><path d="m22.5 6.25h-17.5c-2.7612 0-5 2.2388-5 5v12.5h22.5z" fill="#3c3b6e"/><path d="m2.5019 9.657 0.7725 0.56125-0.295 0.9075 0.77125-0.56125 0.7725 0.56125-0.29625-0.9075 0.77375-0.56125h-0.955l-0.295-0.9075-0.29375 0.9075z" fill="#fff"/><path d="m5.0019 12.157 0.7725 0.56125-0.29625 0.9075 0.7725-0.56125 0.7725 0.56125-0.29625-0.9075 0.77375-0.56125h-0.955l-0.295-0.9075-0.29375 0.9075z" fill="#fff"/><path d="m10.002 12.157 0.7725 0.56125-0.29625 0.9075 0.7725-0.56125 0.7725 0.56125-0.29625-0.9075 0.77375-0.56125h-0.955l-0.295-0.9075-0.29375 0.9075z" fill="#fff"/><path d="m15.002 12.157 0.7725 0.56125-0.29625 0.9075 0.7725-0.56125 0.7725 0.56125-0.29625-0.9075 0.77375-0.56125h-0.955l-0.295-0.9075-0.29375 0.9075z" fill="#fff"/><path d="m5.0019 17.157 0.7725 0.56125-0.29625 0.9075 0.7725-0.56125 0.7725 0.56125-0.29625-0.9075 0.77375-0.56125h-0.955l-0.295-0.9075-0.29375 0.9075z" fill="#fff"/><path d="m10.002 17.157 0.7725 0.56125-0.29625 0.9075 0.7725-0.56125 0.7725 0.56125-0.29625-0.9075 0.77375-0.56125h-0.955l-0.295-0.9075-0.29375 0.9075z" fill="#fff"/><path d="m15.002 17.157 0.7725 0.56125-0.29625 0.9075 0.7725-0.56125 0.7725 0.56125-0.29625-0.9075 0.77375-0.56125h-0.955l-0.295-0.9075-0.29375 0.9075z" fill="#fff"/><path d="m7.5019 9.657 0.7725 0.56125-0.29625 0.9075 0.7725-0.56125 0.7725 0.56125-0.29625-0.9075 0.77375-0.56125h-0.955l-0.295-0.9075-0.29375 0.9075z" fill="#fff"/><path d="m12.502 9.657 0.7725 0.56125-0.29625 0.9075 0.7725-0.56125 0.7725 0.56125-0.29625-0.9075 0.77375-0.56125h-0.955l-0.295-0.9075-0.29375 0.9075z" fill="#fff"/><path d="m17.502 9.657 0.7725 0.56125-0.29625 0.9075 0.7725-0.56125 0.7725 0.56125-0.29625-0.9075 0.77375-0.56125h-0.955l-0.295-0.9075-0.29375 0.9075z" fill="#fff"/><path d="m2.5019 14.657 0.7725 0.56125-0.295 0.9075 0.77125-0.56125 0.7725 0.56125-0.29625-0.9075 0.77375-0.56125h-0.955l-0.295-0.9075-0.29375 0.9075z" fill="#fff"/><path d="m7.9785 16.126 0.7725-0.56125 0.77125 0.56125-0.295-0.9075 0.7725-0.56125h-0.95375l-0.295-0.90625-0.295 0.90625h-0.95375l0.77125 0.56125z" fill="#fff"/><path d="m12.502 14.657 0.7725 0.56125-0.29625 0.9075 0.7725-0.56125 0.7725 0.56125-0.29625-0.9075 0.77375-0.56125h-0.955l-0.295-0.9075-0.29375 0.9075z" fill="#fff"/><path d="m17.502 14.657 0.7725 0.56125-0.29625 0.9075 0.7725-0.56125 0.7725 0.56125-0.29625-0.9075 0.77375-0.56125h-0.955l-0.295-0.9075-0.29375 0.9075z" fill="#fff"/><path d="m2.5019 19.657 0.7725 0.56125-0.295 0.9075 0.77125-0.56125 0.7725 0.56125-0.29625-0.9075 0.77375-0.56125h-0.955l-0.295-0.9075-0.29375 0.9075z" fill="#fff"/><path d="m7.9785 21.126 0.7725-0.56125 0.77125 0.56125-0.295-0.9075 0.7725-0.56125h-0.95375l-0.295-0.90625-0.295 0.90625h-0.95375l0.77125 0.56125z" fill="#fff"/><path d="m12.502 19.657 0.7725 0.56125-0.29625 0.9075 0.7725-0.56125 0.7725 0.56125-0.29625-0.9075 0.77375-0.56125h-0.955l-0.295-0.9075-0.29375 0.9075z" fill="#fff"/><path d="m17.502 19.657 0.7725 0.56125-0.29625 0.9075 0.7725-0.56125 0.7725 0.56125-0.29625-0.9075 0.77375-0.56125h-0.955l-0.295-0.9075-0.29375 0.9075z" fill="#fff"/></g><g><g transform="matrix(1.25 0 0 -1.25 5.8301 38.75)"><path d="m0 0h8.336v5.837z" fill="#00247d"/></g><g transform="matrix(1.25 0 0 -1.25 28.75 31.455)"><path d="m0 0v-5.836h8.335z" fill="#00247d"/></g><g transform="matrix(1.25 0 0 -1.25 37.961 28.75)"><path d="m0 0 5.631-3.942v3.942z" fill="#00247d"/></g><g transform="matrix(1.25 0 0 -1.25 37.964 16.25)"><path d="m0 0h5.629v3.941z" fill="#00247d"/></g><g transform="matrix(1.25 0 0 -1.25 31.424 28.75)"><path d="m0 0 9.712-6.801c0.471 0.48 0.808 1.082 0.99 1.749l-7.215 5.052z" fill="#cf1b2b"/></g><g transform="matrix(1.25,0,0,-1.25,16.25,28.75)"><path d="m0 0h-2.141l-9.711-6.8c0.521-0.53 1.189-0.909 1.938-1.085l9.914 6.942z" fill="#cf1b2b"/></g><g transform="matrix(1.25,0,0,-1.25,45,26.25)"><path d="m0 0h-15v-10h2v5.836l8.335-5.836h0.665c1.117 0 2.126 0.461 2.852 1.199l-9.712 6.801h3.487l7.215-5.052c0.093 0.337 0.158 0.686 0.158 1.052v0.058l-5.631 3.942h5.631z" fill="#eee"/></g><path d="m17.145 26.25-3.5703 2.5h2.6758v1.1797l-12.393 8.6758c0.3675 0.08625 0.74758 0.14453 1.1426 0.14453h0.83008l10.42-7.2969v7.2969h2.5v-12.5z" fill="#eee"/><path d="m31.426 16.25-3.5703 2.5h17.145v-2.5h-7.0371l7.0371-4.9258v-0.074219c0-1.3638-0.5493-2.5975-1.4355-3.5z" fill="#eee"/><path d="m27.855 18.75-10.711 7.5h1.6055v12.5h7.5v-12.5h18.75v-7.5z" fill="#cf1b2b"/></g></svg>
